<svg width="53" height="53" viewBox="0 0 53 53" fill="none" xmlns="http://www.w3.org/2000/svg">
<path d="M28.8418 4.96875C28.2207 4.34775 27.3783 3.99889 26.4999 3.99889C25.6215 3.99889 24.7791 4.34775 24.158 4.96875L2.13977 26.9836C1.98578 27.1376 1.86363 27.3204 1.78029 27.5216C1.69695 27.7228 1.65405 27.9385 1.65405 28.1563C1.65405 28.374 1.69695 28.5897 1.78029 28.7909C1.86363 28.9921 1.98578 29.1749 2.13977 29.3289C2.45077 29.6399 2.87258 29.8146 3.3124 29.8146C3.53017 29.8146 3.74582 29.7717 3.94702 29.6884C4.14821 29.605 4.33103 29.4829 4.48502 29.3289L26.4999 7.31069L48.5148 29.3289C48.8258 29.6399 49.2476 29.8146 49.6874 29.8146C50.1272 29.8146 50.549 29.6399 50.86 29.3289C51.171 29.0179 51.3457 28.5961 51.3457 28.1563C51.3457 27.7164 51.171 27.2946 50.86 26.9836L43.0624 19.1893V8.28125C43.0624 7.84199 42.8879 7.42071 42.5773 7.1101C42.2667 6.7995 41.8454 6.625 41.4062 6.625H38.0937C37.6544 6.625 37.2331 6.7995 36.9225 7.1101C36.6119 7.42071 36.4374 7.84199 36.4374 8.28125V12.5643L28.8418 4.96875Z" fill="black"/>
<path d="M26.5 10.9081L46.375 30.7831V44.7188C46.375 46.0366 45.8515 47.3004 44.9197 48.2322C43.9879 49.164 42.724 49.6875 41.4062 49.6875H11.5938C10.276 49.6875 9.01213 49.164 8.08031 48.2322C7.14849 47.3004 6.625 46.0366 6.625 44.7188V30.7831L26.5 10.9081Z" fill="black"/>
</svg>
